<svg width="400" height="454" viewBox="0 0 400 454" fill="none" xmlns="http://www.w3.org/2000/svg">
<path d="M61.3335 18.6664C32.6668 22.1331 8.66684 43.8664 2.00018 72.2664C-1.86649 88.7997 -0.133158 103.066 7.86684 119.333C12.9335 129.466 15.4668 132.266 60.5335 177.333C88.2668 205.2 109.067 224.8 110.8 225.066C113.067 225.466 122.8 216.533 156.8 182.533L200 139.333L243.2 182.533C277.2 216.4 286.934 225.466 289.2 225.066C290.934 224.8 311.867 204.933 339.467 177.333C384.4 132.4 387.067 129.466 392.134 119.333C400.134 103.066 401.867 88.7997 398 72.2664C392.4 48.5331 373.867 28.3997 350.8 21.1997C339.867 17.8664 320.934 17.4664 310.934 20.5331C293.867 25.4664 289.734 28.9331 243.734 74.5331L200 117.866L182.8 100.933C173.334 91.5997 164.8 83.9997 163.734 83.9997C160.134 83.9997 156 88.1331 156 91.7331C156 94.5331 159.6 98.9331 172.667 112L189.334 128.666L150 168L110.667 207.333L67.4668 164C20.5335 116.8 18.6668 114.4 15.6002 96.7997C9.33351 60.3997 41.8668 27.5997 78.6668 33.4664C92.9335 35.5997 100.267 40.1331 118.134 57.5997C134.934 73.9997 138.534 75.9997 143.2 71.1997C147.6 66.7997 145.734 63.7331 129.067 47.3331C104.134 22.9331 86.8002 15.5997 61.3335 18.6664ZM345.334 34.9331C372.267 43.1997 389.067 69.7331 384.4 96.7997C381.467 113.6 378.534 117.733 344.134 152.4L312.667 184L273.333 144.666L234 105.333L266 73.4664C300.267 39.4664 304.934 35.9997 320 33.4664C328 32.1331 338 32.6664 345.334 34.9331ZM262.934 154.266C284.134 175.466 301.334 193.333 301.334 194C301.334 194.8 298.667 198.133 295.334 201.333L289.333 207.333L250 168L210.667 128.666L216.934 122.4C220.4 118.8 223.6 116 224 116C224.267 116 241.867 133.2 262.934 154.266Z" fill="#898989"/>
<path d="M187.2 192.667C184.4 197.067 186.4 202.267 191.333 203.467C198.267 205.2 202.8 196.4 197.6 191.6C194 188.4 189.733 188.8 187.2 192.667Z" fill="#898989"/>
<path d="M223.6 218.4C219.333 223.2 222.267 229.6 228.667 229.6C235.067 229.6 238.267 222.4 233.867 218.133C231.067 215.333 226.267 215.466 223.6 218.4Z" fill="#898989"/>
<path d="M102.267 259.733C99.7335 262.533 73.3335 339.733 73.3335 344.4C73.3335 346.133 74.4002 348.533 75.7335 349.6C79.6002 353.2 182.133 387.067 185.867 386.133C187.733 385.733 190.133 383.6 191.067 381.6C192.133 379.6 198.8 360.4 206.133 338.933C218.8 301.6 219.2 299.733 217.333 296.267C215.467 293.067 209.867 290.8 164 275.067C135.733 265.467 110.8 257.467 108.533 257.467C106.133 257.333 103.467 258.4 102.267 259.733ZM158.267 282C185.2 291.2 208 298.933 208.933 299.333C210.133 299.733 210 301.333 208.533 305.867L206.4 311.867L192.933 307.067C184.933 304.267 177.6 300.8 175.333 298.667C172.4 296 162.8 292.133 138.4 284C120.133 278 105.333 272.933 105.333 272.667C105.333 271.467 108 265.333 108.533 265.333C108.8 265.333 131.2 272.8 158.267 282ZM136.267 292.133C159.867 300.133 169.733 304 172.667 306.667C174.933 308.8 181.467 311.867 188 314C194.267 316 200.4 318.267 201.6 318.8C203.6 319.867 202.8 323.067 193.867 348.933C188.4 364.933 183.733 378 183.6 378.133C183.2 378.667 82.9335 344.667 82.0002 343.867C81.4668 343.2 93.7335 306 102 282.933C102.267 282.133 102.933 281.333 103.333 281.333C103.6 281.333 118.533 286.267 136.267 292.133Z" fill="#898989"/>
<path d="M117.467 305.2C116.267 306 115.867 307.733 116.4 310.533C117.067 313.733 116.667 314.933 114.667 316C113.067 316.8 112 318.8 112 320.933C112 324.133 112.267 324.267 117.2 323.467C121.733 322.8 122.667 323.067 123.333 325.333C124.4 328.533 130 328.933 131.2 325.867C131.6 324.8 131.333 322.533 130.533 321.067C129.2 318.533 130.533 316.133 133.467 316C135.467 316 136 311.467 134.267 309.733C132.933 308.4 131.6 308.267 129.067 309.2C126 310.267 125.2 310 123.467 307.2C121.067 303.733 120.267 303.467 117.467 305.2Z" fill="#898989"/>
<path d="M160 320.667C158.8 322.133 158.667 323.6 159.6 325.733C160.8 328.133 160.4 329.067 157.6 331.467C152.667 335.467 154.4 339.333 160.667 338.267C164.4 337.6 165.6 338 166.8 340.133C167.6 341.867 169.2 342.667 171.067 342.4C173.467 342.133 174 341.2 173.733 337.333C173.6 334.133 174.267 332.267 176.133 330.933C181.6 327.2 177.6 321.067 171.6 324.133C169.467 325.333 168.667 325.333 168.267 324.133C167.6 322.133 164.133 318.667 162.8 318.667C162.133 318.667 160.933 319.6 160 320.667Z" fill="#898989"/>
<path d="M118.8 337.867C115.333 342 124.533 350.667 132.133 350.667C134.4 350.667 137.733 351.867 139.6 353.333C145.6 358 157.867 356 157.067 350.267C156.667 347.733 155.867 347.333 151.333 347.333C147.733 347.333 144.667 346.267 142 344.267C139.067 341.867 137.067 341.333 134 341.867C130.667 342.533 129.2 342 126.667 339.333C123.067 335.6 121.067 335.2 118.8 337.867Z" fill="#898989"/>
<path d="M277.067 300.133C275.734 300.8 274.667 302.266 274.667 303.2C274.667 305.466 278.267 307.066 279.334 305.333C280.534 303.333 284.8 303.733 286.534 305.866C288.8 308.533 286.8 312 282.4 312.933C279.067 313.6 274.667 317.6 274.667 320.133C274.667 322.4 279.734 322.133 281.2 319.866C282 318.4 283.867 317.333 285.334 317.333C289.334 317.333 293.334 312.533 293.334 308C293.334 301.466 283.2 296.533 277.067 300.133Z" fill="#898989"/>
<path d="M271.2 326C270.133 328.533 271.6 330.667 274.667 330.667C277.6 330.667 279.067 327.6 276.933 325.467C274.933 323.467 272 323.6 271.2 326Z" fill="#898989"/>
<path d="M280.533 376.266C278 377.466 277.6 379.066 276.933 391.066C275.867 408.133 276.667 409.333 285.6 404.266C291.6 400.933 292.267 400.8 293.467 402.933C294.933 405.6 295.867 405.866 298.533 404.133C299.867 403.2 300 402.4 298.8 400.133C297.467 397.866 297.6 397.2 299.2 396.533C302 395.466 300.133 391.6 297.2 392.4C295.2 392.933 293.6 391.2 289.867 383.866C287.2 378.8 284.667 374.666 284.133 374.8C283.733 374.8 282.133 375.466 280.533 376.266ZM289.333 395.466C289.333 396.933 282.8 400.533 281.733 399.466C281.333 399.2 281.6 395.466 282 391.333L282.933 383.866L286.133 388.933C287.867 391.733 289.333 394.666 289.333 395.466Z" fill="#898989"/>
<path d="M249.733 393.333C242.533 397.6 242.267 406 248.667 415.733C252 420.8 256.667 424 260.8 424C264.8 424 270.4 420 271.733 416.133C274.133 409.2 269.333 397.6 262.267 393.333C256.933 390 255.067 390 249.733 393.333ZM260.267 399.6C266.533 406.4 268.533 413.6 265.067 417.067C261.2 420.933 255.2 416.933 251.333 407.733C248.8 401.6 248.8 400.667 251.467 398.133C254.4 395.067 256.4 395.467 260.267 399.6Z" fill="#898989"/>
<path d="M227.2 405.866C225.067 407.466 224.533 409.733 224.267 420.533C223.6 438.266 223.733 438.533 232.533 433.466C239.467 429.6 239.867 429.466 240.667 432C241.6 434.933 242.4 435.2 245.2 433.466C246.267 432.8 246.667 431.333 246.133 430C245.733 428.666 246 426.8 246.8 425.866C248.667 423.6 247.067 421.066 244.267 421.6C242.667 422 240.533 419.333 236.933 413.066C234.133 408.133 231.467 404 230.933 404C230.267 404 228.667 404.8 227.2 405.866ZM233.733 419.333L237.2 425.333L233.2 427.333L229.333 429.466V421.333C229.333 416.933 229.6 413.333 229.867 413.333C230.133 413.333 232 416 233.733 419.333Z" fill="#898989"/>
</svg>
