<svg width="25" height="24" viewBox="0 0 25 24" fill="none" xmlns="http://www.w3.org/2000/svg">
<path d="M13.25 7.5C13.25 6.94772 12.8023 6.5 12.25 6.5C11.6977 6.5 11.25 6.94772 11.25 7.5H13.25ZM11.25 16.5C11.25 17.0523 11.6977 17.5 12.25 17.5C12.8023 17.5 13.25 17.0523 13.25 16.5H11.25ZM16.75 13C17.3023 13 17.75 12.5523 17.75 12C17.75 11.4477 17.3023 11 16.75 11V13ZM7.75 11C7.19772 11 6.75 11.4477 6.75 12C6.75 12.5523 7.19772 13 7.75 13V11ZM20.25 12C20.25 16.4183 16.6683 20 12.25 20V22C17.7728 22 22.25 17.5228 22.25 12H20.25ZM12.25 20C7.83172 20 4.25 16.4183 4.25 12H2.25C2.25 17.5228 6.72715 22 12.25 22V20ZM4.25 12C4.25 7.58172 7.83172 4 12.25 4V2C6.72715 2 2.25 6.47715 2.25 12H4.25ZM12.25 4C16.6683 4 20.25 7.58172 20.25 12H22.25C22.25 6.47715 17.7728 2 12.25 2V4ZM11.25 7.5L11.25 12H13.25L13.25 7.5H11.25ZM11.25 12V16.5H13.25V12H11.25ZM16.75 11H12.25V13H16.75V11ZM12.25 11H7.75V13H12.25V11Z" fill="#EEEEEE"/>
</svg>
