<svg width="90" height="90" viewBox="0 0 90 90" fill="none" xmlns="http://www.w3.org/2000/svg">
<path d="M19.6875 74.5308V68.2027C19.6875 63.5428 23.4651 59.7652 28.125 59.7652H61.875C66.5349 59.7652 70.3125 63.5428 70.3125 68.2027V76.6402M19.6875 78.75C15.0276 78.75 11.25 74.7736 11.25 69.8684V20.1316C11.25 15.2264 15.0276 11.25 19.6875 11.25H70.3125C74.9724 11.25 78.75 15.2264 78.75 20.1316V69.8684C78.75 74.7736 74.9724 78.75 70.3125 78.75H19.6875ZM55.5469 34.4527C55.5469 40.2776 50.8249 44.9996 45 44.9996C39.1751 44.9996 34.4531 40.2776 34.4531 34.4527C34.4531 28.6278 39.1751 23.9058 45 23.9058C50.8249 23.9058 55.5469 28.6278 55.5469 34.4527Z" stroke="#515151" stroke-width="6" stroke-linecap="round" stroke-linejoin="round"/>
</svg>
