<svg width="20" height="20" viewBox="0 0 20 20" fill="none" xmlns="http://www.w3.org/2000/svg">
<path d="M10.1185 13.7878C10.472 14.212 11.1026 14.2694 11.5269 13.9158C11.9512 13.5622 12.0085 12.9317 11.6549 12.5074L10.1185 13.7878ZM8.12454 9.833L7.35632 9.19281C7.04728 9.56366 7.04728 10.1023 7.35632 10.4732L8.12454 9.833ZM11.6549 7.15859C12.0085 6.73432 11.9512 6.10375 11.5269 5.75019C11.1026 5.39663 10.472 5.45395 10.1185 5.87823L11.6549 7.15859ZM11.6549 12.5074L8.89276 9.19281L7.35632 10.4732L10.1185 13.7878L11.6549 12.5074ZM8.89276 10.4732L11.6549 7.15859L10.1185 5.87823L7.35632 9.19281L8.89276 10.4732ZM10 3.5C13.5899 3.5 16.5 6.41015 16.5 10H18.5C18.5 5.30558 14.6944 1.5 10 1.5V3.5ZM16.5 10C16.5 13.5899 13.5899 16.5 10 16.5V18.5C14.6944 18.5 18.5 14.6944 18.5 10H16.5ZM10 16.5C6.41015 16.5 3.5 13.5899 3.5 10H1.5C1.5 14.6944 5.30558 18.5 10 18.5V16.5ZM3.5 10C3.5 6.41015 6.41015 3.5 10 3.5V1.5C5.30558 1.5 1.5 5.30558 1.5 10H3.5Z" fill="#595959"/>
</svg>
